<svg width="32" height="32" viewBox="0 0 32 32" fill="none" xmlns="http://www.w3.org/2000/svg">
<path d="M19.3332 5.33337H12.6665L9.33317 9.33337H5.33317C4.62593 9.33337 3.94765 9.61433 3.44755 10.1144C2.94746 10.6145 2.6665 11.2928 2.6665 12V24C2.6665 24.7073 2.94746 25.3856 3.44755 25.8857C3.94765 26.3858 4.62593 26.6667 5.33317 26.6667H26.6665C27.3737 26.6667 28.052 26.3858 28.5521 25.8857C29.0522 25.3856 29.3332 24.7073 29.3332 24V12C29.3332 11.2928 29.0522 10.6145 28.5521 10.1144C28.052 9.61433 27.3737 9.33337 26.6665 9.33337H22.6665L19.3332 5.33337Z" stroke="#3860D2" stroke-width="2" stroke-linecap="round" stroke-linejoin="round"/>
<path d="M16 21.3334C18.2091 21.3334 20 19.5425 20 17.3334C20 15.1242 18.2091 13.3334 16 13.3334C13.7909 13.3334 12 15.1242 12 17.3334C12 19.5425 13.7909 21.3334 16 21.3334Z" stroke="#3860D2" stroke-width="2" stroke-linecap="round" stroke-linejoin="round"/>
</svg>
