<svg width="28" height="28" viewBox="0 0 28 28" fill="none" xmlns="http://www.w3.org/2000/svg">
<path d="M23.3333 18.0833C21.875 18.0833 20.475 17.85 19.1683 17.4183C19.0517 17.3833 18.9233 17.36 18.8067 17.36C18.5033 17.36 18.2117 17.4767 17.9783 17.6983L15.4117 20.265C12.11 18.585 9.40333 15.89 7.72333 12.5767L10.29 9.99833C10.6167 9.695 10.71 9.24 10.5817 8.83167C10.15 7.525 9.91667 6.125 9.91667 4.66667C9.91667 4.025 9.39167 3.5 8.75 3.5H4.66667C4.025 3.5 3.5 4.025 3.5 4.66667C3.5 15.6217 12.3783 24.5 23.3333 24.5C23.975 24.5 24.5 23.975 24.5 23.3333V19.25C24.5 18.6083 23.975 18.0833 23.3333 18.0833ZM5.86833 5.83333H7.61833C7.7 6.86 7.875 7.875 8.14333 8.84333L6.74333 10.255C6.27667 8.84333 5.97333 7.37333 5.86833 5.83333ZM22.1667 22.1317C20.6267 22.0267 19.1333 21.7233 17.7333 21.245L19.1333 19.845C20.125 20.125 21.14 20.3 22.1667 20.37V22.1317ZM21 7V3.5H18.6667V7H15.1667V9.33333H18.6667V12.8333H21V9.33333H24.5V7H21Z" fill="#3860D2"/>
</svg>
