<svg width="29" height="24" viewBox="0 0 29 24" fill="none" xmlns="http://www.w3.org/2000/svg">
<path fill-rule="evenodd" clip-rule="evenodd" d="M1.99085 10.3318C9.76473 6.94489 14.9485 4.712 17.5423 3.63318C24.9479 0.552929 26.4867 0.0178568 27.4897 0.000188385C27.7103 -0.00369759 28.2035 0.0509728 28.523 0.310224C28.7928 0.529131 28.867 0.824843 28.9025 1.03239C28.9381 1.23994 28.9823 1.71274 28.9471 2.08217C28.5458 6.2988 26.8093 16.5315 25.9259 21.2541C25.5521 23.2525 24.8161 23.9225 24.1035 23.9881C22.5549 24.1306 21.379 22.9647 19.8791 21.9815C17.5321 20.443 16.2062 19.4853 13.928 17.984C11.2952 16.249 13.0019 15.2954 14.5024 13.737C14.895 13.3291 21.7181 7.12301 21.8502 6.56002C21.8667 6.48961 21.8821 6.22715 21.7261 6.08856C21.5702 5.94997 21.3401 5.99736 21.174 6.03505C20.9386 6.08848 17.1892 8.56668 9.92585 13.4697C8.8616 14.2005 7.89763 14.5565 7.03395 14.5379C6.08181 14.5173 4.25028 13.9995 2.88873 13.5569C1.21872 13.0141 -0.108561 12.7271 0.00701583 11.8051C0.0672153 11.3249 0.728493 10.8338 1.99085 10.3318Z" fill="#3860D2"/>
</svg>
