<svg width="32" height="32" viewBox="0 0 32 32" fill="none" xmlns="http://www.w3.org/2000/svg">
<path d="M26.6668 17.3333C26.6668 23.9999 22.0002 27.3333 16.4535 29.2666C16.163 29.365 15.8475 29.3603 15.5602 29.2533C10.0002 27.3333 5.3335 23.9999 5.3335 17.3333V7.99995C5.3335 7.64633 5.47397 7.30719 5.72402 7.05714C5.97407 6.80709 6.31321 6.66662 6.66683 6.66662C9.3335 6.66662 12.6668 5.06662 14.9868 3.03995C15.2693 2.79861 15.6286 2.66602 16.0002 2.66602C16.3717 2.66602 16.731 2.79861 17.0135 3.03995C19.3468 5.07995 22.6668 6.66662 25.3335 6.66662C25.6871 6.66662 26.0263 6.80709 26.2763 7.05714C26.5264 7.30719 26.6668 7.64633 26.6668 7.99995V17.3333Z" stroke="#3860D2" stroke-width="2" stroke-linecap="round" stroke-linejoin="round"/>
</svg>
